<svg width="243" height="67" viewBox="0 0 243 67" fill="none" xmlns="http://www.w3.org/2000/svg">
<g filter="url(#filter0_d_24_3)">
<path d="M73.2041 22.5361H79.708C81.9346 22.5361 83.624 22.9854 84.7764 23.8838C85.9385 24.7725 86.5195 25.9736 86.5195 27.4873C86.5195 29.5088 85.5283 31.0273 83.5459 32.043C84.7373 32.4043 85.6699 33.0439 86.3438 33.9619C87.0176 34.8799 87.3545 35.9102 87.3545 37.0527C87.3545 38.6152 86.7246 39.9971 85.4648 41.1982C84.2148 42.3994 82.5059 43 80.3379 43H70.3184L73.2041 22.5361ZM77.1006 25.9639L76.4121 30.4609H79.3564C80.2842 30.4609 80.9971 30.2412 81.4951 29.8018C82.0029 29.3623 82.2568 28.7715 82.2568 28.0293C82.2568 26.6523 81.2998 25.9639 79.3857 25.9639H77.1006ZM75.958 33.874L75.0938 39.5869H79.2246C80.4062 39.5869 81.3047 39.3184 81.9199 38.7812C82.5449 38.2441 82.8574 37.5117 82.8574 36.584C82.8574 35.7246 82.5156 35.0605 81.832 34.5918C81.1484 34.1133 80.2207 33.874 79.0488 33.874H75.958ZM104.962 22.5361L104.479 25.9639H96.0557L95.3672 30.7832H102.779L102.296 34.2109H94.8838L94.1367 39.5869H104.757L104.273 43H89.3027L92.1885 22.5361H104.962ZM125.514 22.5361L125.03 25.9639H118.38L115.978 43H111.627L114.029 25.9639H107.54L108.023 22.5361H125.514ZM135.68 22.2725L139.283 43H134.815L134.186 38.5322H127.828L125.836 43H121.046L131.065 22.2725H135.68ZM129.088 35.6172H133.819L132.735 26.5645L129.088 35.6172ZM156.524 22.5361L156.026 25.9639H148.614L147.955 30.8271H154.342L153.858 34.2402H147.472L146.212 43H141.861L144.747 22.5361H156.524ZM177.75 22.5361L175.948 35.2949C175.206 40.6074 172.066 43.2637 166.529 43.2637C163.609 43.2637 161.368 42.6094 159.806 41.3008C158.243 39.9824 157.462 38.1514 157.462 35.8076C157.462 35.29 157.501 34.748 157.579 34.1816L159.264 22.5361H163.614L161.959 34.123C161.91 34.5137 161.886 34.8799 161.886 35.2217C161.886 36.6279 162.315 37.6924 163.175 38.415C164.034 39.1279 165.152 39.4844 166.529 39.4844C167.926 39.4844 169.078 39.0986 169.986 38.3271C170.895 37.5459 171.451 36.4131 171.656 34.9287L173.399 22.5361H177.75ZM200.821 22.5361L197.965 43H193.834L185.367 29.1426L183.448 43H179.098L181.983 22.5361H186.334L194.64 35.8955L196.471 22.5361H200.821ZM205.333 22.5361H212.13C215.548 22.5361 218.16 23.4639 219.967 25.3193C221.783 27.1748 222.691 29.5674 222.691 32.4971C222.691 35.5146 221.764 38.0195 219.908 40.0117C218.062 42.0039 215.772 43 213.038 43H202.477L205.333 22.5361ZM209.2 25.9639L207.311 39.5869H211.383C213.521 39.5869 215.191 38.918 216.393 37.5801C217.594 36.2324 218.194 34.5186 218.194 32.4385C218.194 30.5244 217.574 28.9668 216.334 27.7656C215.094 26.5645 213.414 25.9639 211.295 25.9639H209.2ZM237.574 22.2725L241.178 43H236.71L236.08 38.5322H229.723L227.73 43H222.94L232.96 22.2725H237.574ZM230.982 35.6172H235.714L234.63 26.5645L230.982 35.6172Z" fill="url(#paint0_linear_24_3)"/>
</g>
<g filter="url(#filter1_d_24_3)">
<path d="M72.3691 45.8145L71.4141 52.6348H75.1348L74.9414 54H69.4805L70.6348 45.8145H72.3691ZM80.9062 45.709L82.3477 54H80.5605L80.3086 52.2129H77.7656L76.9688 54H75.0527L79.0605 45.709H80.9062ZM78.2695 51.0469H80.1621L79.7285 47.4258L78.2695 51.0469ZM84.5566 45.8145H87.1582C88.0488 45.8145 88.7246 45.9941 89.1855 46.3535C89.6504 46.709 89.8828 47.1895 89.8828 47.7949C89.8828 48.6035 89.4863 49.2109 88.6934 49.6172C89.1699 49.7617 89.543 50.0176 89.8125 50.3848C90.082 50.752 90.2168 51.1641 90.2168 51.6211C90.2168 52.2461 89.9648 52.7988 89.4609 53.2793C88.9609 53.7598 88.2773 54 87.4102 54H83.4023L84.5566 45.8145ZM86.1152 47.1855L85.8398 48.9844H87.0176C87.3887 48.9844 87.6738 48.8965 87.873 48.7207C88.0762 48.5449 88.1777 48.3086 88.1777 48.0117C88.1777 47.4609 87.7949 47.1855 87.0293 47.1855H86.1152ZM85.6582 50.3496L85.3125 52.6348H86.9648C87.4375 52.6348 87.7969 52.5273 88.043 52.3125C88.293 52.0977 88.418 51.8047 88.418 51.4336C88.418 51.0898 88.2812 50.8242 88.0078 50.6367C87.7344 50.4453 87.3633 50.3496 86.8945 50.3496H85.6582ZM96.5977 46.3535L96.3574 47.7949C96.0645 47.584 95.7246 47.4121 95.3379 47.2793C94.9551 47.1426 94.6191 47.0742 94.3301 47.0742C94.002 47.0742 93.7285 47.1602 93.5098 47.332C93.291 47.5 93.1816 47.7148 93.1816 47.9766C93.1816 48.1328 93.2422 48.291 93.3633 48.4512C93.4883 48.6074 93.877 48.8809 94.5293 49.2715C95.1855 49.6621 95.627 50.0469 95.8535 50.4258C96.0801 50.8008 96.1934 51.1914 96.1934 51.5977C96.1934 52.3203 95.9434 52.9199 95.4434 53.3965C94.9434 53.8691 94.2695 54.1055 93.4219 54.1055C92.3477 54.1055 91.4199 53.8457 90.6387 53.3262L90.9023 51.9023C91.2539 52.1523 91.6445 52.3555 92.0742 52.5117C92.5078 52.6641 92.8887 52.7402 93.2168 52.7402C93.5723 52.7402 93.8574 52.6582 94.0723 52.4941C94.2871 52.3262 94.3945 52.1074 94.3945 51.8379C94.3945 51.6504 94.3242 51.4609 94.1836 51.2695C94.0469 51.0781 93.6484 50.7793 92.9883 50.373C92.332 49.9668 91.9004 49.5918 91.6934 49.248C91.4863 48.9043 91.3828 48.5488 91.3828 48.1816C91.3828 47.4785 91.6562 46.8906 92.2031 46.418C92.75 45.9453 93.4355 45.709 94.2598 45.709C95.084 45.709 95.8633 45.9238 96.5977 46.3535Z" fill="#4F6B69"/>
</g>
<rect x="1" y="1" width="52" height="65" fill="url(#paint1_linear_24_3)" stroke="url(#paint2_linear_24_3)" stroke-width="2"/>
<g filter="url(#filter2_i_24_3)">
<mask id="path-4-inside-1_24_3" fill="white">
<path fill-rule="evenodd" clip-rule="evenodd" d="M7.19836 52.3549L16 42H38L46.8016 52.3549C51.2689 47.5378 54 41.0878 54 34C54 19.4231 42.4484 7.54423 28 7.01818V7H27C12.0883 7 0 19.0883 0 34C0 41.0878 2.7311 47.5378 7.19836 52.3549ZM38 47V45L16 45V47L38 47ZM13 52V50L41 50V52L13 52ZM45 57L10 57V55L45 55V57ZM49 62L6 62V60L49 60V62ZM2 67L53 67V65L2 65L2 67ZM38 17H16V41H38V17Z"/>
</mask>
<path fill-rule="evenodd" clip-rule="evenodd" d="M7.19836 52.3549L16 42H38L46.8016 52.3549C51.2689 47.5378 54 41.0878 54 34C54 19.4231 42.4484 7.54423 28 7.01818V7H27C12.0883 7 0 19.0883 0 34C0 41.0878 2.7311 47.5378 7.19836 52.3549ZM38 47V45L16 45V47L38 47ZM13 52V50L41 50V52L13 52ZM45 57L10 57V55L45 55V57ZM49 62L6 62V60L49 60V62ZM2 67L53 67V65L2 65L2 67ZM38 17H16V41H38V17Z" fill="#F2F2F2"/>
<path d="M16 42V41H15.5376L15.2381 41.3524L16 42ZM7.19836 52.3549L6.46512 53.0349L7.23092 53.8606L7.9603 53.0025L7.19836 52.3549ZM38 42L38.7619 41.3524L38.4624 41H38V42ZM46.8016 52.3549L46.0397 53.0025L46.7691 53.8606L47.5349 53.0349L46.8016 52.3549ZM28 7.01818H27V7.98243L27.9636 8.01751L28 7.01818ZM28 7H29V6H28V7ZM38 45H39V44H38V45ZM38 47V48H39V47H38ZM16 45V44H15V45H16ZM16 47H15V48H16V47ZM13 50V49H12V50H13ZM13 52H12V53H13V52ZM41 50H42V49H41V50ZM41 52V53H42V52H41ZM10 57H9V58H10V57ZM45 57V58H46V57H45ZM10 55V54H9V55H10ZM45 55H46V54H45V55ZM6 62H5V63H6V62ZM49 62V63H50V62H49ZM6 60V59H5V60H6ZM49 60H50V59H49V60ZM53 67V68H54V67H53ZM2 67H1L1 68H2L2 67ZM53 65H54V64H53V65ZM2 65V64H1L1 65H2ZM16 17V16H15V17H16ZM38 17H39V16H38V17ZM16 41H15V42H16V41ZM38 41V42H39V41H38ZM15.2381 41.3524L6.43642 51.7072L7.9603 53.0025L16.7619 42.6476L15.2381 41.3524ZM38 41H16V43H38V41ZM47.5636 51.7072L38.7619 41.3524L37.2381 42.6476L46.0397 53.0025L47.5636 51.7072ZM53 34C53 40.8258 50.371 47.0354 46.0684 51.6749L47.5349 53.0349C52.1668 48.0401 55 41.3498 55 34H53ZM27.9636 8.01751C41.8762 8.52406 53 19.9632 53 34H55C55 18.883 43.0206 6.5644 28.0364 6.01884L27.9636 8.01751ZM27 7V7.01818H29V7H27ZM27 8H28V6H27V8ZM1 34C1 19.6406 12.6406 8 27 8V6C11.536 6 -1 18.536 -1 34H1ZM7.93159 51.6749C3.62904 47.0354 1 40.8258 1 34H-1C-1 41.3498 1.83317 48.0401 6.46512 53.0349L7.93159 51.6749ZM37 45V47H39V45H37ZM16 46L38 46V44L16 44V46ZM17 47V45H15V47H17ZM38 46L16 46V48L38 48V46ZM12 50V52H14V50H12ZM41 49L13 49V51L41 51V49ZM42 52V50H40V52H42ZM13 53L41 53V51L13 51V53ZM10 58L45 58V56L10 56V58ZM9 55V57H11V55H9ZM45 54L10 54V56L45 56V54ZM46 57V55H44V57H46ZM6 63L49 63V61L6 61V63ZM5 60V62H7V60H5ZM49 59L6 59V61L49 61V59ZM50 62V60H48V62H50ZM53 66L2 66L2 68L53 68V66ZM52 65V67H54V65H52ZM2 66L53 66V64L2 64V66ZM3 67L3 65H1L1 67H3ZM16 18H38V16H16V18ZM17 41V17H15V41H17ZM38 40H16V42H38V40ZM37 17V41H39V17H37Z" fill="#E5E5E5" mask="url(#path-4-inside-1_24_3)"/>
</g>
<g filter="url(#filter3_d_24_3)">
<rect x="16" y="17" width="22" height="24" fill="url(#paint3_radial_24_3)"/>
</g>
<defs>
<filter id="filter0_d_24_3" x="69.3184" y="22.2725" width="172.859" height="22.9912" filterUnits="userSpaceOnUse" color-interpolation-filters="sRGB">
<feFlood flood-opacity="0" result="BackgroundImageFix"/>
<feColorMatrix in="SourceAlpha" type="matrix" values="0 0 0 0 0 0 0 0 0 0 0 0 0 0 0 0 0 0 127 0" result="hardAlpha"/>
<feOffset dy="1"/>
<feGaussianBlur stdDeviation="0.5"/>
<feComposite in2="hardAlpha" operator="out"/>
<feColorMatrix type="matrix" values="0 0 0 0 0 0 0 0 0 0 0 0 0 0 0 0 0 0 0.2 0"/>
<feBlend mode="normal" in2="BackgroundImageFix" result="effect1_dropShadow_24_3"/>
<feBlend mode="normal" in="SourceGraphic" in2="effect1_dropShadow_24_3" result="shape"/>
</filter>
<filter id="filter1_d_24_3" x="68.4805" y="45.709" width="29.1172" height="10.3965" filterUnits="userSpaceOnUse" color-interpolation-filters="sRGB">
<feFlood flood-opacity="0" result="BackgroundImageFix"/>
<feColorMatrix in="SourceAlpha" type="matrix" values="0 0 0 0 0 0 0 0 0 0 0 0 0 0 0 0 0 0 127 0" result="hardAlpha"/>
<feOffset dy="1"/>
<feGaussianBlur stdDeviation="0.5"/>
<feComposite in2="hardAlpha" operator="out"/>
<feColorMatrix type="matrix" values="0 0 0 0 0 0 0 0 0 0 0 0 0 0 0 0 0 0 0.2 0"/>
<feBlend mode="normal" in2="BackgroundImageFix" result="effect1_dropShadow_24_3"/>
<feBlend mode="normal" in="SourceGraphic" in2="effect1_dropShadow_24_3" result="shape"/>
</filter>
<filter id="filter2_i_24_3" x="0" y="7" width="54" height="60" filterUnits="userSpaceOnUse" color-interpolation-filters="sRGB">
<feFlood flood-opacity="0" result="BackgroundImageFix"/>
<feBlend mode="normal" in="SourceGraphic" in2="BackgroundImageFix" result="shape"/>
<feColorMatrix in="SourceAlpha" type="matrix" values="0 0 0 0 0 0 0 0 0 0 0 0 0 0 0 0 0 0 127 0" result="hardAlpha"/>
<feOffset/>
<feGaussianBlur stdDeviation="4"/>
<feComposite in2="hardAlpha" operator="arithmetic" k2="-1" k3="1"/>
<feColorMatrix type="matrix" values="0 0 0 0 0.670833 0 0 0 0 0.670833 0 0 0 0 0.670833 0 0 0 0.84 0"/>
<feBlend mode="normal" in2="shape" result="effect1_innerShadow_24_3"/>
</filter>
<filter id="filter3_d_24_3" x="6" y="7" width="42" height="44" filterUnits="userSpaceOnUse" color-interpolation-filters="sRGB">
<feFlood flood-opacity="0" result="BackgroundImageFix"/>
<feColorMatrix in="SourceAlpha" type="matrix" values="0 0 0 0 0 0 0 0 0 0 0 0 0 0 0 0 0 0 127 0" result="hardAlpha"/>
<feOffset/>
<feGaussianBlur stdDeviation="5"/>
<feComposite in2="hardAlpha" operator="out"/>
<feColorMatrix type="matrix" values="0 0 0 0 1 0 0 0 0 1 0 0 0 0 1 0 0 0 1 0"/>
<feBlend mode="normal" in2="BackgroundImageFix" result="effect1_dropShadow_24_3"/>
<feBlend mode="normal" in="SourceGraphic" in2="effect1_dropShadow_24_3" result="shape"/>
</filter>
<linearGradient id="paint0_linear_24_3" x1="156" y1="15" x2="156" y2="50" gradientUnits="userSpaceOnUse">
<stop offset="0.00312487" stop-color="white"/>
<stop offset="0.388542" stop-color="#6B0091"/>
<stop offset="0.503125" stop-color="#BBFFFB"/>
<stop offset="1"/>
</linearGradient>
<linearGradient id="paint1_linear_24_3" x1="28.4444" y1="37.2917" x2="28.7531" y2="1.00064" gradientUnits="userSpaceOnUse">
<stop stop-color="white" stop-opacity="0"/>
<stop offset="1" stop-color="#000626"/>
</linearGradient>
<linearGradient id="paint2_linear_24_3" x1="27" y1="1" x2="27" y2="66" gradientUnits="userSpaceOnUse">
<stop stop-color="#A456C9"/>
<stop offset="1" stop-color="#530170"/>
</linearGradient>
<radialGradient id="paint3_radial_24_3" cx="0" cy="0" r="1" gradientUnits="userSpaceOnUse" gradientTransform="translate(27 54.5) rotate(-90) scale(47 43.0833)">
<stop stop-color="#878787"/>
<stop offset="1" stop-color="#B2E3FF"/>
</radialGradient>
</defs>
</svg>
