<svg width="300" height="100" viewBox="0 0 300 100" fill="none" xmlns="http://www.w3.org/2000/svg">
<rect width="300" height="100" fill="white"/>
<g filter="url(#filter0_d_24_4)">
<path d="M107.204 36.5361H113.708C115.935 36.5361 117.624 36.9854 118.776 37.8838C119.938 38.7725 120.52 39.9736 120.52 41.4873C120.52 43.5088 119.528 45.0273 117.546 46.043C118.737 46.4043 119.67 47.0439 120.344 47.9619C121.018 48.8799 121.354 49.9102 121.354 51.0527C121.354 52.6152 120.725 53.9971 119.465 55.1982C118.215 56.3994 116.506 57 114.338 57H104.318L107.204 36.5361ZM111.101 39.9639L110.412 44.4609H113.356C114.284 44.4609 114.997 44.2412 115.495 43.8018C116.003 43.3623 116.257 42.7715 116.257 42.0293C116.257 40.6523 115.3 39.9639 113.386 39.9639H111.101ZM109.958 47.874L109.094 53.5869H113.225C114.406 53.5869 115.305 53.3184 115.92 52.7812C116.545 52.2441 116.857 51.5117 116.857 50.584C116.857 49.7246 116.516 49.0605 115.832 48.5918C115.148 48.1133 114.221 47.874 113.049 47.874H109.958ZM138.962 36.5361L138.479 39.9639H130.056L129.367 44.7832H136.779L136.296 48.2109H128.884L128.137 53.5869H138.757L138.273 57H123.303L126.188 36.5361H138.962ZM159.514 36.5361L159.03 39.9639H152.38L149.978 57H145.627L148.029 39.9639H141.54L142.023 36.5361H159.514ZM169.68 36.2725L173.283 57H168.815L168.186 52.5322H161.828L159.836 57H155.046L165.065 36.2725H169.68ZM163.088 49.6172H167.819L166.735 40.5645L163.088 49.6172ZM190.524 36.5361L190.026 39.9639H182.614L181.955 44.8271H188.342L187.858 48.2402H181.472L180.212 57H175.861L178.747 36.5361H190.524ZM211.75 36.5361L209.948 49.2949C209.206 54.6074 206.066 57.2637 200.529 57.2637C197.609 57.2637 195.368 56.6094 193.806 55.3008C192.243 53.9824 191.462 52.1514 191.462 49.8076C191.462 49.29 191.501 48.748 191.579 48.1816L193.264 36.5361H197.614L195.959 48.123C195.91 48.5137 195.886 48.8799 195.886 49.2217C195.886 50.6279 196.315 51.6924 197.175 52.415C198.034 53.1279 199.152 53.4844 200.529 53.4844C201.926 53.4844 203.078 53.0986 203.986 52.3271C204.895 51.5459 205.451 50.4131 205.656 48.9287L207.399 36.5361H211.75ZM234.821 36.5361L231.965 57H227.834L219.367 43.1426L217.448 57H213.098L215.983 36.5361H220.334L228.64 49.8955L230.471 36.5361H234.821ZM239.333 36.5361H246.13C249.548 36.5361 252.16 37.4639 253.967 39.3193C255.783 41.1748 256.691 43.5674 256.691 46.4971C256.691 49.5146 255.764 52.0195 253.908 54.0117C252.062 56.0039 249.772 57 247.038 57H236.477L239.333 36.5361ZM243.2 39.9639L241.311 53.5869H245.383C247.521 53.5869 249.191 52.918 250.393 51.5801C251.594 50.2324 252.194 48.5186 252.194 46.4385C252.194 44.5244 251.574 42.9668 250.334 41.7656C249.094 40.5645 247.414 39.9639 245.295 39.9639H243.2ZM271.574 36.2725L275.178 57H270.71L270.08 52.5322H263.723L261.73 57H256.94L266.96 36.2725H271.574ZM264.982 49.6172H269.714L268.63 40.5645L264.982 49.6172Z" fill="url(#paint0_linear_24_4)"/>
</g>
<g filter="url(#filter1_d_24_4)">
<path d="M106.369 59.8145L105.414 66.6348H109.135L108.941 68H103.48L104.635 59.8145H106.369ZM114.906 59.709L116.348 68H114.561L114.309 66.2129H111.766L110.969 68H109.053L113.061 59.709H114.906ZM112.27 65.0469H114.162L113.729 61.4258L112.27 65.0469ZM118.557 59.8145H121.158C122.049 59.8145 122.725 59.9941 123.186 60.3535C123.65 60.709 123.883 61.1895 123.883 61.7949C123.883 62.6035 123.486 63.2109 122.693 63.6172C123.17 63.7617 123.543 64.0176 123.812 64.3848C124.082 64.752 124.217 65.1641 124.217 65.6211C124.217 66.2461 123.965 66.7988 123.461 67.2793C122.961 67.7598 122.277 68 121.41 68H117.402L118.557 59.8145ZM120.115 61.1855L119.84 62.9844H121.018C121.389 62.9844 121.674 62.8965 121.873 62.7207C122.076 62.5449 122.178 62.3086 122.178 62.0117C122.178 61.4609 121.795 61.1855 121.029 61.1855H120.115ZM119.658 64.3496L119.312 66.6348H120.965C121.438 66.6348 121.797 66.5273 122.043 66.3125C122.293 66.0977 122.418 65.8047 122.418 65.4336C122.418 65.0898 122.281 64.8242 122.008 64.6367C121.734 64.4453 121.363 64.3496 120.895 64.3496H119.658ZM130.598 60.3535L130.357 61.7949C130.064 61.584 129.725 61.4121 129.338 61.2793C128.955 61.1426 128.619 61.0742 128.33 61.0742C128.002 61.0742 127.729 61.1602 127.51 61.332C127.291 61.5 127.182 61.7148 127.182 61.9766C127.182 62.1328 127.242 62.291 127.363 62.4512C127.488 62.6074 127.877 62.8809 128.529 63.2715C129.186 63.6621 129.627 64.0469 129.854 64.4258C130.08 64.8008 130.193 65.1914 130.193 65.5977C130.193 66.3203 129.943 66.9199 129.443 67.3965C128.943 67.8691 128.27 68.1055 127.422 68.1055C126.348 68.1055 125.42 67.8457 124.639 67.3262L124.902 65.9023C125.254 66.1523 125.645 66.3555 126.074 66.5117C126.508 66.6641 126.889 66.7402 127.217 66.7402C127.572 66.7402 127.857 66.6582 128.072 66.4941C128.287 66.3262 128.395 66.1074 128.395 65.8379C128.395 65.6504 128.324 65.4609 128.184 65.2695C128.047 65.0781 127.648 64.7793 126.988 64.373C126.332 63.9668 125.9 63.5918 125.693 63.248C125.486 62.9043 125.383 62.5488 125.383 62.1816C125.383 61.4785 125.656 60.8906 126.203 60.418C126.75 59.9453 127.436 59.709 128.26 59.709C129.084 59.709 129.863 59.9238 130.598 60.3535Z" fill="#4F6B69"/>
</g>
<rect x="35" y="15" width="52" height="65" fill="url(#paint1_linear_24_4)" stroke="url(#paint2_linear_24_4)" stroke-width="2"/>
<g filter="url(#filter2_i_24_4)">
<mask id="path-5-inside-1_24_4" fill="white">
<path fill-rule="evenodd" clip-rule="evenodd" d="M41.1984 66.3549L50 56H72L80.8016 66.3549C85.2689 61.5378 88 55.0878 88 48C88 33.4231 76.4484 21.5442 62 21.0182V21H61C46.0883 21 34 33.0883 34 48C34 55.0878 36.7311 61.5378 41.1984 66.3549ZM72 61V59L50 59V61L72 61ZM47 66V64L75 64V66L47 66ZM79 71L44 71V69L79 69V71ZM83 76L40 76V74L83 74V76ZM36 81L87 81V79L36 79L36 81ZM72 31H50V55H72V31Z"/>
</mask>
<path fill-rule="evenodd" clip-rule="evenodd" d="M41.1984 66.3549L50 56H72L80.8016 66.3549C85.2689 61.5378 88 55.0878 88 48C88 33.4231 76.4484 21.5442 62 21.0182V21H61C46.0883 21 34 33.0883 34 48C34 55.0878 36.7311 61.5378 41.1984 66.3549ZM72 61V59L50 59V61L72 61ZM47 66V64L75 64V66L47 66ZM79 71L44 71V69L79 69V71ZM83 76L40 76V74L83 74V76ZM36 81L87 81V79L36 79L36 81ZM72 31H50V55H72V31Z" fill="#F2F2F2"/>
<path d="M50 56V55H49.5376L49.2381 55.3524L50 56ZM41.1984 66.3549L40.4651 67.0349L41.2309 67.8606L41.9603 67.0025L41.1984 66.3549ZM72 56L72.7619 55.3524L72.4624 55H72V56ZM80.8016 66.3549L80.0397 67.0025L80.7691 67.8606L81.5349 67.0349L80.8016 66.3549ZM62 21.0182H61V21.9824L61.9636 22.0175L62 21.0182ZM62 21H63V20H62V21ZM72 59H73V58H72V59ZM72 61V62H73V61H72ZM50 59V58H49V59H50ZM50 61H49V62H50V61ZM47 64V63H46V64H47ZM47 66H46V67H47V66ZM75 64H76V63H75V64ZM75 66V67H76V66H75ZM44 71H43V72H44V71ZM79 71V72H80V71H79ZM44 69V68H43V69H44ZM79 69H80V68H79V69ZM40 76H39V77H40V76ZM83 76V77H84V76H83ZM40 74V73H39V74H40ZM83 74H84V73H83V74ZM87 81V82H88V81H87ZM36 81H35L35 82H36L36 81ZM87 79H88V78H87V79ZM36 79V78H35L35 79H36ZM50 31V30H49V31H50ZM72 31H73V30H72V31ZM50 55H49V56H50V55ZM72 55V56H73V55H72ZM49.2381 55.3524L40.4364 65.7072L41.9603 67.0025L50.7619 56.6476L49.2381 55.3524ZM72 55H50V57H72V55ZM81.5636 65.7072L72.7619 55.3524L71.2381 56.6476L80.0397 67.0025L81.5636 65.7072ZM87 48C87 54.8258 84.371 61.0354 80.0684 65.6749L81.5349 67.0349C86.1668 62.0401 89 55.3498 89 48H87ZM61.9636 22.0175C75.8762 22.5241 87 33.9632 87 48H89C89 32.883 77.0206 20.5644 62.0364 20.0188L61.9636 22.0175ZM61 21V21.0182H63V21H61ZM61 22H62V20H61V22ZM35 48C35 33.6406 46.6406 22 61 22V20C45.536 20 33 32.536 33 48H35ZM41.9316 65.6749C37.629 61.0354 35 54.8258 35 48H33C33 55.3498 35.8332 62.0401 40.4651 67.0349L41.9316 65.6749ZM71 59V61H73V59H71ZM50 60L72 60V58L50 58V60ZM51 61V59H49V61H51ZM72 60L50 60V62L72 62V60ZM46 64V66H48V64H46ZM75 63L47 63V65L75 65V63ZM76 66V64H74V66H76ZM47 67L75 67V65L47 65V67ZM44 72L79 72V70L44 70V72ZM43 69V71H45V69H43ZM79 68L44 68V70L79 70V68ZM80 71V69H78V71H80ZM40 77L83 77V75L40 75V77ZM39 74V76H41V74H39ZM83 73L40 73V75L83 75V73ZM84 76V74H82V76H84ZM87 80L36 80L36 82L87 82V80ZM86 79V81H88V79H86ZM36 80L87 80V78L36 78V80ZM37 81L37 79H35L35 81H37ZM50 32H72V30H50V32ZM51 55V31H49V55H51ZM72 54H50V56H72V54ZM71 31V55H73V31H71Z" fill="#E5E5E5" mask="url(#path-5-inside-1_24_4)"/>
</g>
<g filter="url(#filter3_d_24_4)">
<rect x="50" y="31" width="22" height="24" fill="url(#paint3_radial_24_4)"/>
</g>
<defs>
<filter id="filter0_d_24_4" x="103.318" y="36.2725" width="172.859" height="22.9912" filterUnits="userSpaceOnUse" color-interpolation-filters="sRGB">
<feFlood flood-opacity="0" result="BackgroundImageFix"/>
<feColorMatrix in="SourceAlpha" type="matrix" values="0 0 0 0 0 0 0 0 0 0 0 0 0 0 0 0 0 0 127 0" result="hardAlpha"/>
<feOffset dy="1"/>
<feGaussianBlur stdDeviation="0.5"/>
<feComposite in2="hardAlpha" operator="out"/>
<feColorMatrix type="matrix" values="0 0 0 0 0 0 0 0 0 0 0 0 0 0 0 0 0 0 0.2 0"/>
<feBlend mode="normal" in2="BackgroundImageFix" result="effect1_dropShadow_24_4"/>
<feBlend mode="normal" in="SourceGraphic" in2="effect1_dropShadow_24_4" result="shape"/>
</filter>
<filter id="filter1_d_24_4" x="102.48" y="59.709" width="29.1172" height="10.3965" filterUnits="userSpaceOnUse" color-interpolation-filters="sRGB">
<feFlood flood-opacity="0" result="BackgroundImageFix"/>
<feColorMatrix in="SourceAlpha" type="matrix" values="0 0 0 0 0 0 0 0 0 0 0 0 0 0 0 0 0 0 127 0" result="hardAlpha"/>
<feOffset dy="1"/>
<feGaussianBlur stdDeviation="0.5"/>
<feComposite in2="hardAlpha" operator="out"/>
<feColorMatrix type="matrix" values="0 0 0 0 0 0 0 0 0 0 0 0 0 0 0 0 0 0 0.2 0"/>
<feBlend mode="normal" in2="BackgroundImageFix" result="effect1_dropShadow_24_4"/>
<feBlend mode="normal" in="SourceGraphic" in2="effect1_dropShadow_24_4" result="shape"/>
</filter>
<filter id="filter2_i_24_4" x="34" y="21" width="54" height="60" filterUnits="userSpaceOnUse" color-interpolation-filters="sRGB">
<feFlood flood-opacity="0" result="BackgroundImageFix"/>
<feBlend mode="normal" in="SourceGraphic" in2="BackgroundImageFix" result="shape"/>
<feColorMatrix in="SourceAlpha" type="matrix" values="0 0 0 0 0 0 0 0 0 0 0 0 0 0 0 0 0 0 127 0" result="hardAlpha"/>
<feOffset/>
<feGaussianBlur stdDeviation="4"/>
<feComposite in2="hardAlpha" operator="arithmetic" k2="-1" k3="1"/>
<feColorMatrix type="matrix" values="0 0 0 0 0.670833 0 0 0 0 0.670833 0 0 0 0 0.670833 0 0 0 0.84 0"/>
<feBlend mode="normal" in2="shape" result="effect1_innerShadow_24_4"/>
</filter>
<filter id="filter3_d_24_4" x="40" y="21" width="42" height="44" filterUnits="userSpaceOnUse" color-interpolation-filters="sRGB">
<feFlood flood-opacity="0" result="BackgroundImageFix"/>
<feColorMatrix in="SourceAlpha" type="matrix" values="0 0 0 0 0 0 0 0 0 0 0 0 0 0 0 0 0 0 127 0" result="hardAlpha"/>
<feOffset/>
<feGaussianBlur stdDeviation="5"/>
<feComposite in2="hardAlpha" operator="out"/>
<feColorMatrix type="matrix" values="0 0 0 0 1 0 0 0 0 1 0 0 0 0 1 0 0 0 1 0"/>
<feBlend mode="normal" in2="BackgroundImageFix" result="effect1_dropShadow_24_4"/>
<feBlend mode="normal" in="SourceGraphic" in2="effect1_dropShadow_24_4" result="shape"/>
</filter>
<linearGradient id="paint0_linear_24_4" x1="190" y1="29" x2="190" y2="64" gradientUnits="userSpaceOnUse">
<stop offset="0.00312487" stop-color="white"/>
<stop offset="0.388542" stop-color="#6B0091"/>
<stop offset="0.503125" stop-color="#BBFFFB"/>
<stop offset="1"/>
</linearGradient>
<linearGradient id="paint1_linear_24_4" x1="62.4444" y1="51.2917" x2="62.7531" y2="15.0006" gradientUnits="userSpaceOnUse">
<stop stop-color="white" stop-opacity="0"/>
<stop offset="1" stop-color="#000626"/>
</linearGradient>
<linearGradient id="paint2_linear_24_4" x1="61" y1="15" x2="61" y2="80" gradientUnits="userSpaceOnUse">
<stop stop-color="#A456C9"/>
<stop offset="1" stop-color="#530170"/>
</linearGradient>
<radialGradient id="paint3_radial_24_4" cx="0" cy="0" r="1" gradientUnits="userSpaceOnUse" gradientTransform="translate(61 68.5) rotate(-90) scale(47 43.0833)">
<stop stop-color="#878787"/>
<stop offset="1" stop-color="#B2E3FF"/>
</radialGradient>
</defs>
</svg>
