<svg width="175" height="42" viewBox="0 0 175 42" fill="none" xmlns="http://www.w3.org/2000/svg">
<g filter="url(#filter0_d_24_2)">
<path d="M5.2041 7.53613H11.708C13.9346 7.53613 15.624 7.98535 16.7764 8.88379C17.9385 9.77246 18.5195 10.9736 18.5195 12.4873C18.5195 14.5088 17.5283 16.0273 15.5459 17.043C16.7373 17.4043 17.6699 18.0439 18.3438 18.9619C19.0176 19.8799 19.3545 20.9102 19.3545 22.0527C19.3545 23.6152 18.7246 24.9971 17.4648 26.1982C16.2148 27.3994 14.5059 28 12.3379 28H2.31836L5.2041 7.53613ZM9.10059 10.9639L8.41211 15.4609H11.3564C12.2842 15.4609 12.9971 15.2412 13.4951 14.8018C14.0029 14.3623 14.2568 13.7715 14.2568 13.0293C14.2568 11.6523 13.2998 10.9639 11.3857 10.9639H9.10059ZM7.95801 18.874L7.09375 24.5869H11.2246C12.4062 24.5869 13.3047 24.3184 13.9199 23.7812C14.5449 23.2441 14.8574 22.5117 14.8574 21.584C14.8574 20.7246 14.5156 20.0605 13.832 19.5918C13.1484 19.1133 12.2207 18.874 11.0488 18.874H7.95801ZM36.9619 7.53613L36.4785 10.9639H28.0557L27.3672 15.7832H34.7793L34.2959 19.2109H26.8838L26.1367 24.5869H36.7568L36.2734 28H21.3027L24.1885 7.53613H36.9619ZM57.5137 7.53613L57.0303 10.9639H50.3799L47.9775 28H43.627L46.0293 10.9639H39.54L40.0234 7.53613H57.5137ZM67.6797 7.27246L71.2832 28H66.8154L66.1855 23.5322H59.8281L57.8359 28H53.0459L63.0654 7.27246H67.6797ZM61.0879 20.6172H65.8193L64.7354 11.5645L61.0879 20.6172ZM88.5244 7.53613L88.0264 10.9639H80.6143L79.9551 15.8271H86.3418L85.8584 19.2402H79.4717L78.2119 28H73.8613L76.7471 7.53613H88.5244ZM109.75 7.53613L107.948 20.2949C107.206 25.6074 104.066 28.2637 98.5293 28.2637C95.6094 28.2637 93.3682 27.6094 91.8057 26.3008C90.2432 24.9824 89.4619 23.1514 89.4619 20.8076C89.4619 20.29 89.501 19.748 89.5791 19.1816L91.2637 7.53613H95.6143L93.959 19.123C93.9102 19.5137 93.8857 19.8799 93.8857 20.2217C93.8857 21.6279 94.3154 22.6924 95.1748 23.415C96.0342 24.1279 97.1523 24.4844 98.5293 24.4844C99.9258 24.4844 101.078 24.0986 101.986 23.3271C102.895 22.5459 103.451 21.4131 103.656 19.9287L105.399 7.53613H109.75ZM132.821 7.53613L129.965 28H125.834L117.367 14.1426L115.448 28H111.098L113.983 7.53613H118.334L126.64 20.8955L128.471 7.53613H132.821ZM137.333 7.53613H144.13C147.548 7.53613 150.16 8.46387 151.967 10.3193C153.783 12.1748 154.691 14.5674 154.691 17.4971C154.691 20.5146 153.764 23.0195 151.908 25.0117C150.062 27.0039 147.772 28 145.038 28H134.477L137.333 7.53613ZM141.2 10.9639L139.311 24.5869H143.383C145.521 24.5869 147.191 23.918 148.393 22.5801C149.594 21.2324 150.194 19.5186 150.194 17.4385C150.194 15.5244 149.574 13.9668 148.334 12.7656C147.094 11.5645 145.414 10.9639 143.295 10.9639H141.2ZM169.574 7.27246L173.178 28H168.71L168.08 23.5322H161.723L159.73 28H154.94L164.96 7.27246H169.574ZM162.982 20.6172H167.714L166.63 11.5645L162.982 20.6172Z" fill="url(#paint0_linear_24_2)"/>
</g>
<g filter="url(#filter1_d_24_2)">
<path d="M4.36914 30.8145L3.41406 37.6348H7.13477L6.94141 39H1.48047L2.63477 30.8145H4.36914ZM12.9062 30.709L14.3477 39H12.5605L12.3086 37.2129H9.76562L8.96875 39H7.05273L11.0605 30.709H12.9062ZM10.2695 36.0469H12.1621L11.7285 32.4258L10.2695 36.0469ZM16.5566 30.8145H19.1582C20.0488 30.8145 20.7246 30.9941 21.1855 31.3535C21.6504 31.709 21.8828 32.1895 21.8828 32.7949C21.8828 33.6035 21.4863 34.2109 20.6934 34.6172C21.1699 34.7617 21.543 35.0176 21.8125 35.3848C22.082 35.752 22.2168 36.1641 22.2168 36.6211C22.2168 37.2461 21.9648 37.7988 21.4609 38.2793C20.9609 38.7598 20.2773 39 19.4102 39H15.4023L16.5566 30.8145ZM18.1152 32.1855L17.8398 33.9844H19.0176C19.3887 33.9844 19.6738 33.8965 19.873 33.7207C20.0762 33.5449 20.1777 33.3086 20.1777 33.0117C20.1777 32.4609 19.7949 32.1855 19.0293 32.1855H18.1152ZM17.6582 35.3496L17.3125 37.6348H18.9648C19.4375 37.6348 19.7969 37.5273 20.043 37.3125C20.293 37.0977 20.418 36.8047 20.418 36.4336C20.418 36.0898 20.2812 35.8242 20.0078 35.6367C19.7344 35.4453 19.3633 35.3496 18.8945 35.3496H17.6582ZM28.5977 31.3535L28.3574 32.7949C28.0645 32.584 27.7246 32.4121 27.3379 32.2793C26.9551 32.1426 26.6191 32.0742 26.3301 32.0742C26.002 32.0742 25.7285 32.1602 25.5098 32.332C25.291 32.5 25.1816 32.7148 25.1816 32.9766C25.1816 33.1328 25.2422 33.291 25.3633 33.4512C25.4883 33.6074 25.877 33.8809 26.5293 34.2715C27.1855 34.6621 27.627 35.0469 27.8535 35.4258C28.0801 35.8008 28.1934 36.1914 28.1934 36.5977C28.1934 37.3203 27.9434 37.9199 27.4434 38.3965C26.9434 38.8691 26.2695 39.1055 25.4219 39.1055C24.3477 39.1055 23.4199 38.8457 22.6387 38.3262L22.9023 36.9023C23.2539 37.1523 23.6445 37.3555 24.0742 37.5117C24.5078 37.6641 24.8887 37.7402 25.2168 37.7402C25.5723 37.7402 25.8574 37.6582 26.0723 37.4941C26.2871 37.3262 26.3945 37.1074 26.3945 36.8379C26.3945 36.6504 26.3242 36.4609 26.1836 36.2695C26.0469 36.0781 25.6484 35.7793 24.9883 35.373C24.332 34.9668 23.9004 34.5918 23.6934 34.248C23.4863 33.9043 23.3828 33.5488 23.3828 33.1816C23.3828 32.4785 23.6562 31.8906 24.2031 31.418C24.75 30.9453 25.4355 30.709 26.2598 30.709C27.084 30.709 27.8633 30.9238 28.5977 31.3535Z" fill="#4F6B69"/>
</g>
<defs>
<filter id="filter0_d_24_2" x="1.31836" y="7.27246" width="172.859" height="22.9912" filterUnits="userSpaceOnUse" color-interpolation-filters="sRGB">
<feFlood flood-opacity="0" result="BackgroundImageFix"/>
<feColorMatrix in="SourceAlpha" type="matrix" values="0 0 0 0 0 0 0 0 0 0 0 0 0 0 0 0 0 0 127 0" result="hardAlpha"/>
<feOffset dy="1"/>
<feGaussianBlur stdDeviation="0.5"/>
<feComposite in2="hardAlpha" operator="out"/>
<feColorMatrix type="matrix" values="0 0 0 0 0 0 0 0 0 0 0 0 0 0 0 0 0 0 0.2 0"/>
<feBlend mode="normal" in2="BackgroundImageFix" result="effect1_dropShadow_24_2"/>
<feBlend mode="normal" in="SourceGraphic" in2="effect1_dropShadow_24_2" result="shape"/>
</filter>
<filter id="filter1_d_24_2" x="0.480469" y="30.709" width="29.1172" height="10.3965" filterUnits="userSpaceOnUse" color-interpolation-filters="sRGB">
<feFlood flood-opacity="0" result="BackgroundImageFix"/>
<feColorMatrix in="SourceAlpha" type="matrix" values="0 0 0 0 0 0 0 0 0 0 0 0 0 0 0 0 0 0 127 0" result="hardAlpha"/>
<feOffset dy="1"/>
<feGaussianBlur stdDeviation="0.5"/>
<feComposite in2="hardAlpha" operator="out"/>
<feColorMatrix type="matrix" values="0 0 0 0 0 0 0 0 0 0 0 0 0 0 0 0 0 0 0.2 0"/>
<feBlend mode="normal" in2="BackgroundImageFix" result="effect1_dropShadow_24_2"/>
<feBlend mode="normal" in="SourceGraphic" in2="effect1_dropShadow_24_2" result="shape"/>
</filter>
<linearGradient id="paint0_linear_24_2" x1="88" y1="0" x2="88" y2="35" gradientUnits="userSpaceOnUse">
<stop offset="0.00312487" stop-color="white"/>
<stop offset="0.388542" stop-color="#6B0091"/>
<stop offset="0.503125" stop-color="#BBFFFB"/>
<stop offset="1"/>
</linearGradient>
</defs>
</svg>
