<svg width="62" height="68" viewBox="0 0 62 68" fill="none" xmlns="http://www.w3.org/2000/svg">
<rect x="0.5" y="0.5" width="61" height="67" stroke="url(#paint0_linear_23_8)"/>
<g filter="url(#filter0_i_23_8)">
<mask id="path-2-inside-1_23_8" fill="white">
<path fill-rule="evenodd" clip-rule="evenodd" d="M11.1984 49.3549L20 39H42L50.8016 49.3549C55.2689 44.5378 58 38.0878 58 31C58 16.4231 46.4484 4.54423 32 4.01818V4H31C16.0883 4 4 16.0883 4 31C4 38.0878 6.7311 44.5378 11.1984 49.3549ZM42 44V42L20 42V44L42 44ZM17 49V47L45 47V49L17 49ZM49 54L14 54V52L49 52V54ZM53 59L10 59V57L53 57V59ZM6 64L57 64V62L6 62L6 64ZM42 14H20V38H42V14Z"/>
</mask>
<path fill-rule="evenodd" clip-rule="evenodd" d="M11.1984 49.3549L20 39H42L50.8016 49.3549C55.2689 44.5378 58 38.0878 58 31C58 16.4231 46.4484 4.54423 32 4.01818V4H31C16.0883 4 4 16.0883 4 31C4 38.0878 6.7311 44.5378 11.1984 49.3549ZM42 44V42L20 42V44L42 44ZM17 49V47L45 47V49L17 49ZM49 54L14 54V52L49 52V54ZM53 59L10 59V57L53 57V59ZM6 64L57 64V62L6 62L6 64ZM42 14H20V38H42V14Z" fill="#F2F2F2"/>
<path d="M20 39V38H19.5376L19.2381 38.3524L20 39ZM11.1984 49.3549L10.4651 50.0349L11.2309 50.8606L11.9603 50.0025L11.1984 49.3549ZM42 39L42.7619 38.3524L42.4624 38H42V39ZM50.8016 49.3549L50.0397 50.0025L50.7691 50.8606L51.5349 50.0349L50.8016 49.3549ZM32 4.01818H31V4.98243L31.9636 5.01751L32 4.01818ZM32 4H33V3H32V4ZM42 42H43V41L42 41L42 42ZM42 44L42 45L43 45V44H42ZM20 42L20 41L19 41V42H20ZM20 44H19V45L20 45L20 44ZM17 47L17 46L16 46V47H17ZM17 49H16V50L17 50L17 49ZM45 47H46V46L45 46L45 47ZM45 49L45 50L46 50V49H45ZM14 54H13V55L14 55L14 54ZM49 54L49 55L50 55V54H49ZM14 52L14 51L13 51V52H14ZM49 52H50V51L49 51L49 52ZM10 59H9V60L10 60L10 59ZM53 59L53 60L54 60V59H53ZM10 57L10 56L9 56V57H10ZM53 57H54V56L53 56L53 57ZM57 64L57 65L58 65V64H57ZM6 64L5 64L5 65L6 65L6 64ZM57 62H58V61L57 61L57 62ZM6 62L6 61L5 61L5 62L6 62ZM20 14V13H19V14H20ZM42 14H43V13H42V14ZM20 38H19V39H20V38ZM42 38V39H43V38H42ZM19.2381 38.3524L10.4364 48.7072L11.9603 50.0025L20.7619 39.6476L19.2381 38.3524ZM42 38H20V40H42V38ZM51.5636 48.7072L42.7619 38.3524L41.2381 39.6476L50.0397 50.0025L51.5636 48.7072ZM57 31C57 37.8258 54.371 44.0354 50.0684 48.6749L51.5349 50.0349C56.1668 45.0401 59 38.3498 59 31H57ZM31.9636 5.01751C45.8762 5.52406 57 16.9632 57 31H59C59 15.883 47.0206 3.5644 32.0364 3.01884L31.9636 5.01751ZM31 4V4.01818H33V4H31ZM31 5H32V3H31V5ZM5 31C5 16.6406 16.6406 5 31 5V3C15.536 3 3 15.536 3 31H5ZM11.9316 48.6749C7.62904 44.0354 5 37.8258 5 31H3C3 38.3498 5.83317 45.0401 10.4651 50.0349L11.9316 48.6749ZM41 42V44H43V42H41ZM20 43L42 43L42 41L20 41L20 43ZM21 44V42H19V44H21ZM42 43L20 43L20 45L42 45L42 43ZM16 47V49H18V47H16ZM45 46L17 46L17 48L45 48L45 46ZM46 49V47H44V49H46ZM17 50L45 50L45 48L17 48L17 50ZM14 55L49 55L49 53L14 53L14 55ZM13 52V54H15V52H13ZM49 51L14 51L14 53L49 53L49 51ZM50 54V52H48V54H50ZM10 60L53 60L53 58L10 58L10 60ZM9 57V59H11V57H9ZM53 56L10 56L10 58L53 58L53 56ZM54 59V57H52V59H54ZM57 63L6 63L6 65L57 65L57 63ZM56 62V64H58V62H56ZM6 63L57 63L57 61L6 61L6 63ZM7 64L7 62L5 62L5 64L7 64ZM20 15H42V13H20V15ZM21 38V14H19V38H21ZM42 37H20V39H42V37ZM41 14V38H43V14H41Z" fill="#E5E5E5" mask="url(#path-2-inside-1_23_8)"/>
</g>
<g filter="url(#filter1_d_23_8)">
<rect x="20" y="14" width="22" height="24" fill="url(#paint1_radial_23_8)" shape-rendering="crispEdges"/>
</g>
<defs>
<filter id="filter0_i_23_8" x="4" y="4" width="54" height="60" filterUnits="userSpaceOnUse" color-interpolation-filters="sRGB">
<feFlood flood-opacity="0" result="BackgroundImageFix"/>
<feBlend mode="normal" in="SourceGraphic" in2="BackgroundImageFix" result="shape"/>
<feColorMatrix in="SourceAlpha" type="matrix" values="0 0 0 0 0 0 0 0 0 0 0 0 0 0 0 0 0 0 127 0" result="hardAlpha"/>
<feOffset/>
<feGaussianBlur stdDeviation="4"/>
<feComposite in2="hardAlpha" operator="arithmetic" k2="-1" k3="1"/>
<feColorMatrix type="matrix" values="0 0 0 0 0.533333 0 0 0 0 0.352941 0 0 0 0 0.713726 0 0 0 0.84 0"/>
<feBlend mode="normal" in2="shape" result="effect1_innerShadow_23_8"/>
</filter>
<filter id="filter1_d_23_8" x="10" y="4" width="42" height="44" filterUnits="userSpaceOnUse" color-interpolation-filters="sRGB">
<feFlood flood-opacity="0" result="BackgroundImageFix"/>
<feColorMatrix in="SourceAlpha" type="matrix" values="0 0 0 0 0 0 0 0 0 0 0 0 0 0 0 0 0 0 127 0" result="hardAlpha"/>
<feOffset/>
<feGaussianBlur stdDeviation="5"/>
<feComposite in2="hardAlpha" operator="out"/>
<feColorMatrix type="matrix" values="0 0 0 0 1 0 0 0 0 1 0 0 0 0 1 0 0 0 1 0"/>
<feBlend mode="normal" in2="BackgroundImageFix" result="effect1_dropShadow_23_8"/>
<feBlend mode="normal" in="SourceGraphic" in2="effect1_dropShadow_23_8" result="shape"/>
</filter>
<linearGradient id="paint0_linear_23_8" x1="31" y1="0" x2="31" y2="68" gradientUnits="userSpaceOnUse">
<stop stop-color="#A4B5DC"/>
<stop offset="1" stop-color="#7B34A6"/>
</linearGradient>
<radialGradient id="paint1_radial_23_8" cx="0" cy="0" r="1" gradientUnits="userSpaceOnUse" gradientTransform="translate(31 30.5) rotate(-90) scale(26 23.8333)">
<stop stop-color="#E6E6E6" stop-opacity="0"/>
<stop offset="1" stop-color="white"/>
</radialGradient>
</defs>
</svg>
